<svg width="602" height="187" viewBox="0 0 602 187" fill="none" xmlns="http://www.w3.org/2000/svg">
<path d="M546.533 90V35.28H558.693L589.321 71.76V35.28H601.253V90H589.093L558.313 53.368V90H546.533Z" fill="white"/>
<path d="M494.692 90C492.665 90 490.791 89.4934 489.068 88.48C487.345 87.4667 485.977 86.0987 484.964 84.376C483.951 82.6534 483.444 80.7787 483.444 78.752V35.28H495.224V78.144H526.232V35.28H538.164V78.752C538.164 80.7787 537.632 82.6534 536.568 84.376C535.555 86.0987 534.187 87.4667 532.464 88.48C530.792 89.4934 528.942 90 526.916 90H494.692Z" fill="white"/>
<path d="M463.365 90L447.481 71.076H462.909L475.525 85.972V90H463.365ZM420.881 90V35.356H464.277C466.354 35.356 468.229 35.8626 469.901 36.876C471.624 37.8893 472.992 39.2573 474.005 40.98C475.069 42.7026 475.601 44.5773 475.601 46.604V60.74C475.601 62.7666 475.069 64.6413 474.005 66.364C472.992 68.0866 471.624 69.4546 469.901 70.468C468.229 71.4813 466.354 71.988 464.277 71.988L432.661 72.064V90H420.881ZM432.661 60.132H463.669V47.136H432.661V60.132Z" fill="white"/>
<path d="M361.73 90V35.204H373.51V78.144H416.45V90H361.73Z" fill="white"/>
<path d="M302.504 90V35.204H314.284V78.144H357.224V90H302.504Z" fill="white"/>
<path d="M250.586 90C248.56 90 246.685 89.4934 244.962 88.48C243.24 87.4667 241.872 86.0987 240.858 84.376C239.845 82.6534 239.338 80.7787 239.338 78.752V35.28H251.118V78.144H282.126V35.28H294.058V78.752C294.058 80.7787 293.526 82.6534 292.462 84.376C291.449 86.0987 290.081 87.4667 288.358 88.48C286.686 89.4934 284.837 90 282.81 90H250.586Z" fill="white"/>
<path d="M176.484 90V35.28H217.828C219.855 35.28 221.704 35.7867 223.376 36.8C225.099 37.8134 226.467 39.1814 227.48 40.904C228.544 42.576 229.076 44.4507 229.076 46.528V56.788C229.076 57.4467 229.025 58.08 228.924 58.688C228.873 59.2454 228.747 59.7774 228.544 60.284C229.304 61.2467 229.937 62.3614 230.444 63.628C230.951 64.8947 231.204 66.1614 231.204 67.428V78.752C231.204 80.7787 230.672 82.6534 229.608 84.376C228.595 86.0987 227.227 87.4667 225.504 88.48C223.832 89.4934 221.957 90 219.88 90H176.484ZM188.264 78.144H219.272V68.112H188.264V78.144ZM188.264 56.256H217.144V47.136H188.264V56.256Z" fill="white"/>
<path d="M567.216 161V144.322L546.57 116.36H558.04L572.052 133.968L586.002 116.36H597.596L576.888 144.384V161H567.216Z" fill="white"/>
<path d="M527.896 161L514.938 145.562H527.524L537.816 157.714V161H527.896ZM493.238 161V116.422H528.64C530.334 116.422 531.864 116.835 533.228 117.662C534.633 118.489 535.749 119.605 536.576 121.01C537.444 122.415 537.878 123.945 537.878 125.598V137.13C537.878 138.783 537.444 140.313 536.576 141.718C535.749 143.123 534.633 144.239 533.228 145.066C531.864 145.893 530.334 146.306 528.64 146.306L502.848 146.368V161H493.238ZM502.848 136.634H528.144V126.032H502.848V136.634Z" fill="white"/>
<path d="M439.693 161V116.36H480.923V126.032H449.427V133.844H474.785V143.516H449.427V151.328H480.923V161H439.693Z" fill="white"/>
<path d="M375.231 161L358.987 116.36H369.217L378.951 142.958L388.685 116.36H397.551L407.347 142.958L417.081 116.36H427.249L411.005 161H403.627L393.087 132.294L382.609 161H375.231Z" fill="white"/>
<path d="M306.744 161V116.36H347.974V126.032H316.478V133.844H341.836V143.516H316.478V151.328H347.974V161H306.744Z" fill="white"/>
<path d="M283.916 161L270.958 145.562H283.544L293.836 157.714V161H283.916ZM249.258 161V116.422H284.66C286.355 116.422 287.884 116.835 289.248 117.662C290.653 118.489 291.769 119.605 292.596 121.01C293.464 122.415 293.898 123.945 293.898 125.598V137.13C293.898 138.783 293.464 140.313 292.596 141.718C291.769 143.123 290.653 144.239 289.248 145.066C287.884 145.893 286.355 146.306 284.66 146.306L258.868 146.368V161H249.258ZM258.868 136.634H284.164V126.032H258.868V136.634Z" fill="white"/>
<path d="M191.658 161V116.36H225.386C227.039 116.36 228.548 116.773 229.912 117.6C231.317 118.427 232.433 119.543 233.26 120.948C234.128 122.312 234.562 123.841 234.562 125.536V133.906C234.562 134.443 234.521 134.96 234.438 135.456C234.397 135.911 234.293 136.345 234.128 136.758C234.748 137.543 235.265 138.453 235.678 139.486C236.091 140.519 236.298 141.553 236.298 142.586V151.824C236.298 153.477 235.864 155.007 234.996 156.412C234.169 157.817 233.053 158.933 231.648 159.76C230.284 160.587 228.755 161 227.06 161H191.658ZM201.268 151.328H226.564V143.144H201.268V151.328ZM201.268 133.472H224.828V126.032H201.268V133.472Z" fill="white"/>
<path d="M177 96H602V110H188.279V103L177 96Z" fill="white"/>
<path d="M64.2891 59.5L60.6224 50.5L91.6224 23C96.7891 23.6667 108.222 24.3 112.622 21.5C118.122 18 123.622 11.5 119.122 0C122.622 1.5 129.522 7.1 129.122 17.5C128.722 27.9 123.622 31.8333 121.122 32.5C132.622 32.5 147.211 39.9537 158.622 56.5C166.858 68.4421 169.638 85.0193 169.791 94.5L186.122 104C186.289 111 185.622 127.1 181.622 135.5C177.622 143.9 171.912 150.333 169.556 152.5L165.122 141C167.402 138.667 171.504 133.342 169.556 125C168.622 121 165.622 119 165.622 119C163.772 123.949 161.193 128.921 159.622 132C155.122 140.5 153.122 151 154.122 162.5C154.922 171.7 161.122 182.333 164.122 186.5H151.122C145.739 180.483 138.35 170.455 131.622 157.813C128.122 154.708 115.122 148.4 91.1224 148C67.1224 147.6 56.4558 151.833 54.1224 154C48.1224 165.6 48.9558 180.5 50.1224 186.5H37.6224C34.1224 177.333 27.9224 153.9 31.1224 133.5C31.4283 131.55 31.7662 129.721 32.1355 128C26.6485 132 2.12244 133.5 0.122445 115.5C-1.87756 97.5 21.1224 97.5 32.6224 87C32.9178 86.7303 31.6224 81.1667 31.1224 78.5C29.9225 68.9 37.6224 71.5 42.9769 61.5C45.3313 76.5 39.6225 86 34.6224 90.5C29.6224 95 -0.877563 108 9.62242 118C23.2361 125.714 33.475 115.994 40.8219 107.901C41.5135 107.051 42.2321 106.254 42.9769 105.5C47.1087 101.314 52.0432 98.4334 57.6224 95C70.6224 87 100.544 88.5001 104.833 80C106 75 105.5 73.5 103.612 71.5C100.254 68.7149 96.9389 66.7359 94.6224 65.663C84.4262 64.2515 74.3123 63.8647 66.1224 64L64.2891 59.5Z" fill="white"/>
<path d="M86.1224 154C80.5224 152.8 68.7891 154.5 63.6224 155.5C66.2648 164.7 76.7234 180 81.6224 186.5H92.6224C86.2224 177.3 85.6224 161 86.1224 154Z" fill="white"/>
<path d="M76.1224 32L67.1224 39.5C67.1224 39.5 63.7224 37.5 60.1224 33C57.7224 30 57.6224 26.3333 57.1224 23C57.9558 24.3333 60.8224 27.6 65.6224 30C70.4224 32.4 74.6224 32.3333 76.1224 32Z" fill="white"/>
</svg>
