<svg width="364" height="190" viewBox="0 0 364 190" fill="none" xmlns="http://www.w3.org/2000/svg">
<path d="M138.466 60.6167L134.73 51.4478L166.312 23.4316C171.576 24.1108 183.224 24.756 187.706 21.9035C193.309 18.3378 198.913 11.7158 194.328 0C197.894 1.52815 204.923 7.23324 204.516 17.8284C204.108 28.4236 198.913 32.4307 196.366 33.1099C208.082 33.1099 222.944 40.7035 234.569 57.5604C242.96 69.7266 245.792 86.6149 245.948 96.2735L262.586 105.952C262.755 113.083 262.076 129.485 258.001 138.043C253.926 146.601 248.108 153.155 245.708 155.362L241.191 143.646C243.513 141.269 247.692 135.845 245.708 127.346C244.757 123.271 241.701 121.233 241.701 121.233C239.815 126.276 237.189 131.34 235.588 134.477C231.004 143.137 228.966 153.834 229.985 165.55C230.8 174.922 237.116 185.755 240.173 190H226.929C221.444 183.87 213.916 173.654 207.063 160.774C203.497 157.612 190.253 151.185 165.803 150.777C141.352 150.37 130.485 154.683 128.108 156.89C121.996 168.708 122.845 183.887 124.033 190H111.299C107.733 180.661 101.417 156.788 104.677 136.005C104.988 134.019 105.333 132.155 105.709 130.402C100.119 134.477 75.1325 136.005 73.095 117.668C71.0574 99.3298 94.4891 99.3298 106.205 88.6327C106.506 88.3579 105.186 82.6899 104.677 79.9732C103.454 70.193 111.299 72.8418 116.754 62.6542C119.152 77.9357 113.336 87.6139 108.242 92.1984C103.149 96.7828 72.0762 110.027 82.7732 120.214C96.6423 128.074 107.073 118.171 114.558 109.926C115.263 109.06 115.995 108.249 116.754 107.48C120.963 103.215 125.99 100.281 131.674 96.7828C144.918 88.6327 175.401 90.1609 179.771 81.5014C180.959 76.4075 180.45 74.8794 178.527 72.8418C175.106 70.0044 171.728 67.9883 169.368 66.8953C158.981 65.4573 148.677 65.0632 140.334 65.2011L138.466 60.6167Z" fill="#FF004C"/>
<path d="M160.709 156.89C155.004 155.668 143.05 157.399 137.787 158.418C140.479 167.791 151.133 183.378 156.124 190H167.331C160.811 180.627 160.2 164.021 160.709 156.89Z" fill="#FF004C"/>
<path d="M150.521 32.6005L141.352 40.2413C141.352 40.2413 137.888 38.2038 134.221 33.6193C131.776 30.563 131.674 26.8275 131.165 23.4316C132.014 24.79 134.934 28.118 139.824 30.563C144.714 33.008 148.993 32.9401 150.521 32.6005Z" fill="#FF004C"/>
<path d="M315.76 107.515V60.8228H326.136L352.271 91.9509V60.8228H362.453V107.515H352.077L325.812 76.2571V107.515H315.76Z" fill="#202020"/>
<path d="M271.524 107.515C269.795 107.515 268.195 107.083 266.726 106.218C265.256 105.353 264.088 104.186 263.224 102.716C262.359 101.246 261.927 99.6464 261.927 97.9171V60.8228H271.978V97.3983H298.437V60.8228H308.619V97.9171C308.619 99.6464 308.165 101.246 307.257 102.716C306.392 104.186 305.225 105.353 303.755 106.218C302.328 107.083 300.75 107.515 299.021 107.515H271.524Z" fill="#202020"/>
<path d="M244.793 107.515L231.24 91.3673H244.404L255.17 104.078V107.515H244.793ZM208.542 107.515V60.8876H245.572C247.344 60.8876 248.944 61.32 250.371 62.1846C251.841 63.0493 253.008 64.2166 253.873 65.6866C254.78 67.1565 255.234 68.7561 255.234 70.4855V82.5476C255.234 84.277 254.78 85.8766 253.873 87.3465C253.008 88.8165 251.841 89.9838 250.371 90.8485C248.944 91.7131 247.344 92.1455 245.572 92.1455L218.594 92.2103V107.515H208.542ZM218.594 82.0288H245.053V70.9394H218.594V82.0288Z" fill="#202020"/>
<path d="M158.069 107.515V60.7579H168.121V97.3983H204.762V107.515H158.069Z" fill="#202020"/>
<path d="M107.532 107.515V60.7579H117.584V97.3983H154.224V107.515H107.532Z" fill="#202020"/>
<path d="M63.231 107.515C61.5017 107.515 59.902 107.083 58.4321 106.218C56.9622 105.353 55.7949 104.186 54.9302 102.716C54.0655 101.246 53.6332 99.6464 53.6332 97.9171V60.8228H63.685V97.3983H90.1439V60.8228H100.325V97.9171C100.325 99.6464 99.8714 101.246 98.9635 102.716C98.0988 104.186 96.9315 105.353 95.4616 106.218C94.0349 107.083 92.4569 107.515 90.7275 107.515H63.231Z" fill="#202020"/>
<path d="M0 107.515V60.8228H35.2785C37.0079 60.8228 38.5859 61.2551 40.0126 62.1198C41.4826 62.9844 42.6499 64.1517 43.5145 65.6217C44.4224 67.0484 44.8764 68.648 44.8764 70.4206V79.1754C44.8764 79.7374 44.8331 80.2778 44.7467 80.7966C44.7034 81.2722 44.5954 81.7262 44.4224 82.1585C45.0709 82.9799 45.6114 83.9311 46.0437 85.0119C46.476 86.0927 46.6922 87.1736 46.6922 88.2544V97.9171C46.6922 99.6464 46.2382 101.246 45.3303 102.716C44.4657 104.186 43.2984 105.353 41.8284 106.218C40.4017 107.083 38.8021 107.515 37.0295 107.515H0ZM10.0518 97.3983H36.5107V88.8381H10.0518V97.3983ZM10.0518 78.7214H34.6949V70.9394H10.0518V78.7214Z" fill="#202020"/>
<path d="M333.409 168.099V153.867L315.792 130.008H325.579L337.535 145.032L349.439 130.008H359.332L341.662 153.92V168.099H333.409Z" fill="#202020"/>
<path d="M299.857 168.099L288.8 154.926H299.54L308.322 165.295V168.099H299.857ZM270.284 168.099V130.061H300.492C301.938 130.061 303.243 130.413 304.407 131.119C305.606 131.824 306.558 132.776 307.264 133.976C308.004 135.175 308.375 136.48 308.375 137.89V147.731C308.375 149.141 308.004 150.446 307.264 151.646C306.558 152.845 305.606 153.797 304.407 154.502C303.243 155.208 301.938 155.56 300.492 155.56L278.484 155.613V168.099H270.284ZM278.484 147.307H300.069V138.261H278.484V147.307Z" fill="#202020"/>
<path d="M224.594 168.099V130.008H259.776V138.261H232.9V144.927H254.538V153.18H232.9V159.846H259.776V168.099H224.594Z" fill="#202020"/>
<path d="M169.589 168.099L155.728 130.008H164.458L172.763 152.704L181.069 130.008H188.635L196.994 152.704L205.3 130.008H213.976L200.115 168.099H193.819L184.826 143.604L175.885 168.099H169.589Z" fill="#202020"/>
<path d="M111.15 168.099V130.008H146.331V138.261H119.456V144.927H141.094V153.18H119.456V159.846H146.331V168.099H111.15Z" fill="#202020"/>
<path d="M91.6709 168.099L80.6139 154.926H91.3535L100.136 165.295V168.099H91.6709ZM62.0975 168.099V130.061H92.3058C93.7518 130.061 95.0568 130.413 96.2207 131.119C97.4198 131.824 98.3721 132.776 99.0775 133.976C99.8181 135.175 100.188 136.48 100.188 137.89V147.731C100.188 149.141 99.8181 150.446 99.0775 151.646C98.3721 152.845 97.4198 153.797 96.2207 154.502C95.0568 155.208 93.7518 155.56 92.3058 155.56L70.2976 155.613V168.099H62.0975ZM70.2976 147.307H91.8825V138.261H70.2976V147.307Z" fill="#202020"/>
<path d="M12.9478 168.099V130.008H41.7277C43.1385 130.008 44.4258 130.36 45.5897 131.066C46.7889 131.771 47.7411 132.723 48.4465 133.923C49.1872 135.086 49.5575 136.391 49.5575 137.838V144.98C49.5575 145.438 49.5223 145.879 49.4517 146.302C49.4164 146.69 49.3283 147.06 49.1872 147.413C49.7162 148.083 50.1571 148.859 50.5098 149.741C50.8625 150.623 51.0388 151.504 51.0388 152.386V160.269C51.0388 161.68 50.6685 162.985 49.9279 164.184C49.2225 165.383 48.2702 166.335 47.071 167.041C45.9071 167.746 44.6022 168.099 43.1561 168.099H12.9478ZM21.148 159.846H42.7329V152.862H21.148V159.846ZM21.148 144.609H41.2516V138.261H21.148V144.609Z" fill="#202020"/>
<path d="M0.440277 112.635H71.2636C70.4103 116.474 70.8369 120.741 72.5435 124.581H0.440278L0.440277 112.635Z" fill="#FF004C"/>
<path d="M265.086 112.635H363.09V124.581H264.108L265.086 112.635Z" fill="#FF004C"/>
</svg>
